<?xml version="1.0" standalone="no"?>
<!DOCTYPE svg PUBLIC "-//W3C//DTD SVG 20010904//EN"
 "http://www.w3.org/TR/2001/REC-SVG-20010904/DTD/svg10.dtd">
<svg version="1.0" xmlns="http://www.w3.org/2000/svg"
 width="544.000000pt" height="600.000000pt" viewBox="0 0 544.000000 600.000000"
 preserveAspectRatio="xMidYMid meet">

<g transform="translate(0.000000,600.000000) scale(0.100000,-0.100000)"
fill="#000000" stroke="none">
<path d="M2770 5991 c-49 -15 -90 -42 -139 -91 -124 -123 -201 -297 -201 -450
0 -113 70 -226 165 -266 40 -16 126 -21 164 -9 18 5 19 2 15 -32 -11 -79 -27
-139 -46 -170 -11 -18 -22 -33 -25 -33 -3 0 -18 11 -35 25 -16 14 -39 25 -51
26 -58 3 -96 -4 -146 -27 -46 -21 -52 -22 -46 -6 27 63 36 111 30 159 -8 65
-38 111 -95 143 -118 66 -381 6 -597 -137 -133 -87 -202 -182 -211 -290 -4
-45 0 -59 20 -91 14 -20 44 -48 66 -62 23 -14 42 -29 42 -33 0 -11 -110 -1
-295 24 -462 65 -637 64 -763 0 -58 -30 -144 -118 -172 -176 -48 -102 -37
-252 27 -379 34 -68 133 -168 198 -202 l53 -28 -20 -27 c-40 -53 -30 -84 90
-264 l110 -165 -9 -73 c-5 -39 -18 -160 -29 -267 l-20 -195 -43 -39 c-160
-149 -217 -206 -217 -217 0 -9 19 -10 75 -6 41 3 75 2 75 -3 0 -14 -137 -66
-300 -114 -220 -64 -348 -120 -389 -170 -18 -21 1 -51 66 -101 69 -55 243
-243 243 -264 0 -19 -40 -19 -50 0 -20 36 -103 64 -159 53 -16 -4 -40 -16 -52
-28 -12 -11 -36 -28 -52 -36 -63 -31 -61 -75 6 -147 58 -64 124 -93 210 -93
37 0 67 -2 67 -5 0 -2 -14 -39 -31 -82 -63 -158 -159 -425 -159 -442 0 -14 35
-33 141 -80 77 -35 154 -67 170 -73 26 -9 30 -15 27 -41 -3 -27 2 -33 41 -52
24 -12 67 -28 97 -34 l54 -12 0 -43 c0 -24 -3 -56 -6 -72 -5 -28 -7 -29 -73
-30 -131 -2 -231 -50 -231 -110 0 -36 64 -99 115 -113 87 -24 227 0 344 58 57
29 64 30 108 20 27 -7 120 -15 208 -19 88 -5 210 -17 270 -29 130 -24 339 -27
455 -6 74 13 76 13 193 -21 64 -18 145 -38 178 -43 82 -14 199 2 266 34 49 25
53 25 89 10 37 -15 37 -15 113 29 l76 44 3 278 c2 153 4 279 6 281 1 2 110
-18 242 -43 131 -24 257 -48 279 -52 47 -9 45 5 31 -223 l-8 -135 83 -23 83
-23 58 28 58 28 0 143 c0 79 3 143 8 143 15 0 465 -90 469 -93 2 -2 6 -181 9
-398 3 -217 7 -404 8 -417 2 -19 20 -30 113 -67 l110 -45 78 36 77 36 -6 86
c-3 48 -9 265 -12 482 l-6 396 317 147 c175 81 320 146 322 144 3 -4 -62 -772
-72 -838 l-5 -36 87 -18 87 -17 58 28 c49 23 58 32 62 58 3 17 12 220 21 451
9 231 18 439 21 462 4 37 10 45 46 65 l41 23 -7 94 c-3 52 -7 95 -8 97 -2 1
-90 5 -195 9 -106 4 -193 9 -193 12 0 2 12 22 27 46 32 51 123 238 123 254 0
23 -143 41 -462 59 -106 6 -130 10 -144 25 -10 11 -15 21 -13 23 2 2 72 33
154 69 264 114 269 117 277 162 22 115 110 624 123 710 9 55 19 168 22 251 l6
151 -44 21 c-24 11 -137 63 -250 115 -113 51 -228 108 -254 125 -51 33 -74 38
-103 22 -9 -5 -91 -38 -182 -74 -390 -152 -781 -331 -799 -364 -7 -13 -11 -85
-11 -187 l0 -166 -22 15 c-49 34 -150 10 -191 -46 -11 -15 -26 -28 -32 -28 -6
0 -27 -14 -47 -30 -71 -59 -61 -140 38 -307 35 -59 64 -114 64 -121 0 -29 -43
-7 -55 28 -7 19 -18 34 -24 32 -87 -19 -420 -28 -435 -11 -2 2 -6 83 -10 179
l-6 175 76 40 c93 49 129 79 119 103 -19 45 -17 48 51 88 83 49 164 123 164
151 0 36 -49 46 -244 51 l-178 4 6 45 c3 25 6 70 6 99 l0 53 93 93 c149 152
209 275 211 433 1 50 -2 102 -7 117 -6 21 -3 28 12 33 34 10 120 106 151 168
41 81 41 138 1 178 -26 26 -36 29 -94 29 -35 0 -85 -6 -111 -14 l-47 -14 6 91
c11 169 17 217 26 217 5 0 25 -6 43 -14 41 -17 56 -6 56 41 0 18 3 33 6 33 3
0 32 -27 66 -60 33 -33 64 -60 69 -60 14 0 11 61 -6 116 -8 27 -15 53 -15 58
0 15 39 -25 62 -63 25 -43 58 -81 70 -81 15 0 8 97 -12 155 -11 32 -38 91 -60
131 l-40 73 20 51 c11 28 20 56 20 62 0 6 -16 25 -35 44 l-35 32 53 18 c28 9
66 23 82 31 42 21 105 84 105 105 0 25 -68 24 -150 -2 -34 -11 -64 -20 -66
-20 -1 0 -2 42 -2 93 0 50 -5 111 -11 135 -12 44 -64 112 -76 100 -4 -4 -12
-45 -18 -92 l-10 -84 -37 37 c-31 30 -39 45 -44 90 -10 77 -41 160 -73 194
-54 57 -147 81 -223 58z m104 -50 c42 -37 60 -92 64 -198 4 -88 1 -114 -22
-194 -57 -198 -181 -353 -268 -335 -70 14 -146 103 -168 196 -16 68 8 188 60
298 48 101 140 199 222 237 55 26 79 25 112 -4z m125 -79 c22 -65 25 -209 7
-282 -33 -133 -137 -298 -214 -339 -11 -6 4 14 33 44 100 105 158 252 158 405
0 75 -7 114 -39 219 -7 23 -6 23 18 7 14 -9 30 -33 37 -54z m210 -199 c15 -53
14 -216 -1 -231 -18 -18 16 -15 92 8 36 11 76 20 89 20 21 0 22 -2 10 -17 -14
-16 -51 -35 -145 -72 l-51 -20 -44 30 c-24 17 -66 41 -92 55 -38 19 -47 29
-42 42 4 9 14 47 23 85 9 37 19 67 23 67 8 0 65 -62 92 -100 l18 -25 -6 51
c-6 57 4 144 16 144 4 0 13 -17 18 -37z m-16 -348 c39 -31 57 -52 57 -68 0
-49 -15 -48 -66 4 -53 54 -107 89 -166 108 -41 13 -45 21 -26 51 12 18 14 18
78 -16 36 -18 91 -54 123 -79z m-176 3 c15 -7 40 -20 56 -31 l27 -19 -20 -29
c-83 -116 -166 -396 -215 -724 -15 -103 -18 -111 -55 -152 -22 -23 -40 -53
-40 -65 0 -20 4 -18 43 18 116 112 221 174 304 181 50 4 62 2 87 -18 26 -20
28 -26 24 -76 -6 -64 -57 -146 -122 -193 l-41 -31 -13 76 c-8 42 -12 79 -9 82
3 2 31 -1 62 -7 43 -9 59 -9 70 0 21 17 19 25 -10 38 -36 17 -122 15 -185 -4
-45 -13 -66 -29 -132 -96 -43 -44 -76 -83 -73 -86 3 -3 15 3 28 14 55 49 50
49 106 -22 28 -37 51 -71 51 -75 0 -5 -33 -9 -74 -9 -71 0 -111 -15 -69 -26
19 -5 19 -8 2 -137 -10 -73 -23 -174 -30 -224 l-11 -93 -176 -162 c-385 -356
-552 -487 -682 -533 -126 -45 -303 11 -507 161 -95 69 -306 280 -387 386 l-59
78 7 72 c4 40 9 96 12 123 l6 51 81 -8 c154 -14 360 19 509 81 207 87 426 260
581 459 l48 62 -34 0 c-40 0 -181 -39 -247 -69 -43 -19 -44 -20 -10 -14 19 3
72 16 118 28 45 12 82 20 82 17 0 -3 -34 -42 -76 -88 -166 -183 -364 -319
-564 -387 -249 -85 -457 -73 -685 38 -213 104 -290 215 -290 420 0 76 4 99 26
146 49 105 140 168 275 189 80 13 161 9 461 -26 116 -13 265 -27 330 -30 144
-7 438 10 513 31 30 8 55 15 55 15 0 0 -1 -20 -3 -45 -4 -41 0 -49 32 -81 36
-36 37 -36 104 -32 87 5 163 43 251 124 72 68 127 150 144 216 6 24 25 60 43
82 40 47 59 101 75 209 12 81 12 83 73 145 63 65 82 72 133 50z m-688 -101
c66 -32 86 -66 86 -140 -1 -81 -31 -144 -105 -216 -32 -31 -70 -74 -86 -96
-16 -22 -36 -45 -44 -52 -22 -17 -113 -41 -202 -53 -153 -22 -318 24 -362 99
-24 41 -24 106 -1 152 57 110 299 269 488 320 87 23 162 18 226 -14z m871 -34
c53 -60 120 -182 144 -265 8 -27 13 -48 11 -48 -1 0 -38 36 -81 80 -42 44 -79
78 -81 76 -3 -2 4 -33 15 -68 26 -85 35 -138 24 -138 -5 0 -29 29 -52 65 -23
36 -46 65 -50 65 -16 0 -29 -27 -32 -65 l-3 -40 -49 0 -50 0 -11 -45 c-7 -27
-17 -46 -27 -48 -14 -3 -15 4 -3 65 7 37 24 97 38 133 33 88 135 290 146 290
5 0 33 -26 61 -57z m-563 -257 c27 -23 27 -25 15 -71 -17 -63 -57 -119 -142
-198 -115 -106 -240 -155 -284 -111 -24 24 -20 92 10 151 35 71 144 172 234
217 86 43 128 46 167 12z m329 -231 c3 -8 3 -19 0 -24 -10 -16 -36 -1 -36 20
0 22 28 26 36 4z m-18 -67 c7 -7 12 -23 12 -36 0 -18 -4 -23 -16 -18 -9 3 -18
6 -20 6 -2 0 -4 14 -4 30 0 32 9 37 28 18z m2 -130 c0 -19 -35 -57 -53 -58 -8
0 1 87 10 103 8 13 43 -24 43 -45z m59 -215 c5 -21 12 -57 16 -80 l7 -43 -36
0 c-31 0 -40 6 -71 48 -19 26 -35 50 -35 54 0 12 73 58 92 58 12 0 20 -12 27
-37z m44 -223 c14 -69 -5 -178 -47 -265 -30 -65 -58 -99 -212 -257 -330 -340
-592 -561 -808 -682 -41 -23 -66 -43 -66 -54 0 -36 21 -246 26 -267 4 -18 1
-25 -16 -30 -12 -4 -24 -5 -26 -2 -2 2 -14 53 -25 112 -11 59 -29 131 -40 160
l-19 52 -64 7 c-289 29 -648 339 -955 823 -52 82 -71 121 -71 146 0 45 20 71
48 63 20 -7 21 -8 5 -40 -15 -33 -15 -35 27 -114 177 -341 570 -719 852 -820
95 -34 208 -36 285 -5 105 42 299 188 533 402 416 380 442 408 503 539 34 74
48 196 29 252 -11 29 -10 31 11 28 17 -2 23 -13 30 -48z m-80 -42 c7 -54 -8
-129 -41 -193 -26 -53 -103 -167 -108 -162 -2 2 1 18 6 36 5 18 17 104 26 191
l17 159 36 4 c20 2 41 4 47 5 6 1 14 -17 17 -40z m-2083 -204 c25 -9 47 -20
51 -25 5 -9 -5 -123 -16 -169 -6 -22 -10 -18 -51 45 -50 77 -59 103 -50 140 7
29 8 29 66 9z m3647 -271 c-9 -247 -81 -1210 -105 -1403 l-7 -55 -70 3 c-149
6 -504 44 -709 77 -92 14 -106 23 -106 64 0 18 4 22 18 16 9 -4 76 -11 147
-16 72 -4 210 -15 308 -23 98 -9 198 -16 222 -16 l43 0 11 48 c33 141 137
1270 119 1288 -21 20 -725 -221 -757 -260 -13 -15 -30 -176 -31 -281 0 -102
-5 -115 -38 -103 l-27 10 1 206 1 205 79 40 c198 100 847 376 883 377 l24 0
-6 -177z m300 35 c131 -61 248 -118 261 -126 20 -13 22 -22 22 -96 0 -99 -20
-263 -65 -541 -46 -284 -82 -464 -96 -481 -14 -17 -102 -59 -283 -134 -77 -32
-158 -66 -180 -75 l-38 -16 6 43 c15 104 37 380 71 888 40 614 43 650 55 650
5 0 116 -50 247 -112z m-471 -190 c-24 -373 -69 -891 -87 -1022 l-12 -78 -66
6 c-36 3 -136 8 -221 12 -85 4 -158 8 -162 10 -3 2 1 22 10 43 12 27 25 41 47
47 22 7 37 23 58 65 57 111 45 251 -28 337 -45 52 -69 53 -125 7 -23 -19 -47
-35 -53 -35 -11 0 -3 424 9 467 4 14 26 30 62 46 103 46 255 104 372 142 63
20 126 41 140 45 63 21 64 20 56 -92z m-1623 -45 c-7 -54 -17 -138 -21 -187
l-7 -90 -55 -33 c-86 -52 -329 -155 -508 -217 -90 -31 -170 -56 -178 -56 -8 0
-14 8 -14 18 0 13 24 33 73 62 185 109 395 278 587 471 69 70 128 127 131 128
3 0 0 -43 -8 -96z m-1752 -20 c194 -257 504 -480 737 -528 60 -13 87 -29 76
-46 -2 -4 -37 -13 -77 -19 -108 -18 -394 -76 -484 -99 -103 -26 -143 -44 -225
-97 -37 -24 -80 -50 -96 -58 -29 -15 -30 -15 -36 16 -9 45 -7 226 4 358 11
136 52 530 55 530 2 0 22 -26 46 -57z m2063 -83 c39 -6 72 -13 75 -15 12 -12
-85 -93 -209 -176 -125 -82 -155 -117 -59 -68 42 21 69 20 69 -3 0 -18 -174
-113 -330 -181 -216 -94 -616 -241 -624 -229 -2 4 -6 40 -7 81 -3 58 -1 76 11
81 8 4 65 22 125 39 176 51 334 116 586 243 243 122 280 146 257 166 -36 29
-105 20 -80 -11 10 -12 1 -20 -50 -47 l-61 -33 6 68 c4 37 9 70 12 73 6 6 112
19 170 20 22 1 71 -3 109 -8z m642 -12 c-3 -13 -9 -110 -13 -216 -5 -170 -8
-191 -21 -178 -13 12 -13 38 -3 193 12 187 17 223 33 223 6 0 8 -10 4 -22z
m-235 -298 c28 -16 23 -37 -17 -72 -62 -54 -121 -201 -94 -233 20 -24 27 -18
40 38 25 105 61 150 134 167 56 12 117 -29 177 -119 36 -55 38 -88 5 -97 -39
-10 -62 3 -105 61 -33 44 -47 55 -70 55 -35 0 -74 -30 -91 -70 -16 -38 -9
-144 13 -186 12 -23 13 -40 5 -84 -15 -86 -15 -85 -43 -66 -35 23 -63 20 -122
-13 -29 -16 -54 -26 -57 -23 -11 10 -6 68 7 84 6 9 29 21 50 28 30 9 41 9 54
-2 15 -12 16 -9 10 30 -3 27 -24 75 -56 126 -66 109 -81 145 -81 203 0 45 20
93 38 93 4 0 8 -37 7 -82 0 -46 4 -96 10 -113 7 -24 10 -10 15 80 7 122 22
165 68 189 32 18 76 20 103 6z m-2619 -177 c-3 -79 -4 -82 -23 -72 -19 10 -79
3 -134 -17 -11 -4 20 34 69 84 50 50 90 90 91 89 0 -1 -1 -39 -3 -84z m1907
15 c15 -79 23 -220 15 -252 -7 -28 -7 -29 -68 -23 -34 3 -106 18 -161 33 -151
40 -153 40 -137 21 21 -25 111 -55 240 -79 98 -19 153 -22 337 -23 l220 0 -6
-65 c-8 -83 7 -284 26 -346 8 -26 13 -50 11 -51 -2 -2 -28 6 -57 18 -30 12
-171 61 -314 109 -294 100 -444 155 -528 195 -32 15 -60 25 -64 21 -22 -22
111 -92 347 -180 l145 -55 -3 -138 c-1 -76 -5 -166 -8 -200 l-6 -63 -36 0
c-66 0 -216 27 -274 50 -84 31 -171 93 -223 158 -62 77 -129 216 -160 333 -26
98 -56 279 -49 291 2 3 35 16 72 29 87 29 429 165 557 223 55 24 103 45 107
45 4 1 11 -23 17 -51z m1146 -23 c26 -50 30 -69 29 -134 0 -76 -15 -121 -52
-163 -27 -32 -30 -19 -11 43 29 93 25 174 -11 245 -21 43 -26 60 -17 66 20 13
31 3 62 -57z m-85 -26 c25 -47 35 -122 26 -174 -6 -30 -10 -35 -24 -29 -9 4
-37 9 -61 12 -33 3 -50 -1 -72 -17 -16 -12 -29 -17 -29 -12 0 5 5 13 11 16 6
4 8 13 5 21 -4 10 4 14 29 14 49 0 75 29 75 81 0 24 -8 55 -20 75 -20 31 -20
33 -3 43 31 18 42 12 63 -30z m-1979 -66 c6 -32 12 -73 13 -90 l1 -33 -215
-105 c-118 -57 -220 -105 -226 -105 -6 0 -25 21 -42 48 -31 48 -68 81 -154
140 -55 38 -58 38 -58 12 0 -14 18 -32 56 -56 30 -19 54 -39 52 -43 -2 -4 -46
-45 -98 -92 -52 -46 -169 -155 -260 -241 -90 -87 -169 -158 -174 -158 -24 0
19 311 77 550 l23 95 13 -72 c12 -69 12 -74 -19 -170 -35 -105 -50 -225 -31
-237 7 -5 11 7 11 37 0 64 34 164 79 233 31 49 57 73 137 127 94 64 106 69
242 103 176 44 497 112 534 113 25 1 28 -3 39 -56z m1668 -140 c-18 -34 -29
-11 -29 61 0 43 5 65 18 79 16 19 17 17 20 -49 2 -41 -2 -78 -9 -91z m74 121
c16 -20 16 -22 -3 -39 -20 -18 -20 -18 -20 25 0 24 1 41 3 39 1 -2 10 -13 20
-25z m-2822 -170 c-33 -175 -68 -431 -74 -537 -2 -37 -9 -73 -15 -79 -11 -11
-15 15 -27 172 -4 41 -11 92 -17 112 -10 35 -9 41 25 93 21 30 37 59 37 64 0
5 -21 27 -47 49 -36 30 -45 43 -37 53 6 8 48 65 94 127 46 61 85 111 86 109 2
-2 -9 -75 -25 -163z m2872 104 c2 -7 -6 -34 -19 -60 -44 -87 -83 -197 -143
-397 -68 -229 -83 -267 -137 -338 -70 -92 -176 -160 -296 -188 -136 -32 -410
-8 -586 51 -300 100 -464 323 -513 696 -13 99 -9 128 15 128 9 0 16 -18 21
-56 10 -81 50 -241 77 -304 77 -184 185 -308 328 -379 113 -55 209 -78 382
-90 274 -19 407 21 533 161 91 101 147 242 200 500 35 172 46 204 91 257 28
33 40 38 47 19z m-3005 -89 c-35 -45 -67 -90 -73 -100 -8 -17 -16 -18 -60 -12
-63 10 -269 10 -315 1 -67 -13 62 38 238 96 92 30 187 63 212 74 25 12 49 21
53 21 4 1 -20 -35 -55 -80z m1260 -147 c8 -71 8 -73 -12 -66 -12 3 -40 9 -64
11 -73 8 -83 -11 -113 -227 -6 -47 -16 -91 -21 -97 -13 -16 -72 -16 -174 -2
-97 13 -119 -1 -42 -27 40 -14 82 -19 173 -18 126 0 208 15 288 54 l42 20 -58
-6 c-55 -5 -59 -4 -53 14 4 11 17 66 29 121 l23 101 24 -82 c100 -347 324
-529 713 -578 l97 -12 4 -32 c13 -83 16 -196 7 -215 -20 -36 -174 -142 -285
-196 -233 -111 -511 -193 -766 -225 -288 -35 -967 32 -1128 112 l-47 23 4 65
c2 36 8 118 15 182 6 65 8 118 5 118 -8 0 -25 -74 -40 -176 -15 -101 -14 -100
-95 -74 -100 32 -204 81 -204 96 0 44 91 308 206 599 165 415 165 414 184 446
14 24 17 26 35 13 18 -14 17 -16 -22 -57 l-42 -42 15 -55 c7 -30 22 -114 33
-187 l19 -132 -28 -83 c-28 -80 -49 -179 -36 -167 3 3 19 43 36 89 17 46 41
102 54 124 29 50 333 350 510 504 141 124 140 123 177 49 19 -36 22 -38 52
-32 59 13 182 66 322 139 l140 73 7 -46 c4 -25 11 -79 16 -119z m1920 136 c39
-39 -24 -148 -101 -177 -36 -14 -124 -14 -132 -1 -12 20 8 52 42 66 19 8 42
29 51 45 36 65 52 79 91 79 20 0 42 -5 49 -12z m-557 -51 c-8 -8 -11 -3 -11
19 1 25 2 27 11 11 8 -14 8 -22 0 -30z m-2881 -66 l25 -7 -30 -8 c-16 -4 -63
-23 -104 -42 l-75 -35 -34 35 -35 34 54 11 c104 20 159 23 199 12z m190 -48
c5 -4 -30 -108 -82 -246 -19 -49 -35 -77 -43 -75 -7 2 -32 26 -56 55 -24 28
-70 81 -103 117 -46 52 -56 69 -47 80 16 19 122 65 173 76 40 8 147 4 158 -7z
m2851 -30 c16 -10 29 -22 29 -28 0 -5 -11 -51 -25 -100 -83 -304 -267 -465
-531 -465 -89 0 -84 -12 -84 201 0 104 3 189 8 189 27 -1 161 -39 301 -86 131
-45 165 -53 172 -42 16 25 26 65 70 296 6 28 15 52 21 52 5 0 23 -8 39 -17z
m674 -4 c94 -6 174 -14 178 -18 4 -4 5 -15 1 -25 -5 -12 -14 -15 -38 -12 -17
3 -71 8 -121 11 -177 10 -345 28 -345 36 0 19 39 29 95 24 33 -2 137 -10 230
-16z m-778 -83 c-7 -74 -26 -156 -37 -156 -10 0 -20 63 -20 132 0 48 4 59 22
72 37 26 41 20 35 -48z m-1462 30 c19 -13 18 -16 -4 -122 -28 -136 -33 -144
-76 -144 -43 0 -43 0 -15 160 11 63 20 116 20 118 0 8 60 -1 75 -12z m1821
-92 c141 -20 147 -23 104 -41 -19 -8 -90 -37 -158 -65 -67 -28 -125 -48 -128
-45 -3 3 4 40 16 84 30 112 28 107 44 94 7 -6 62 -18 122 -27z m905 -63 c60
-60 50 -90 -41 -129 -106 -45 -233 -64 -332 -50 -83 11 -182 51 -204 82 -18
26 -18 76 -1 100 13 17 22 18 148 8 317 -26 300 -26 338 2 19 14 39 26 44 26
5 0 27 -17 48 -39z m-613 22 c-2 -5 -10 -20 -17 -35 -28 -56 10 -112 107 -160
62 -31 75 -33 182 -36 130 -4 248 18 345 64 75 35 87 62 60 128 -5 11 -5 17 1
14 5 -3 92 -11 194 -18 306 -20 309 -4 -25 -158 -159 -73 -300 -136 -315 -138
-14 -3 -106 6 -205 21 -220 31 -829 127 -833 130 -18 15 187 117 363 180 42
15 149 20 143 8z m-3708 -93 c30 -16 44 -48 29 -66 -10 -13 -14 -12 -30 2 -9
8 -43 24 -75 33 -50 16 -55 20 -38 29 24 14 89 15 114 2z m4837 -133 c-41 -77
-73 -127 -88 -135 -13 -6 -89 -39 -169 -73 -183 -76 -489 -225 -645 -314
l-119 -68 -206 43 c-357 73 -693 149 -704 160 -5 5 -7 12 -3 16 5 5 294 -52
730 -146 76 -17 147 -30 159 -30 11 0 100 53 197 118 97 65 193 127 214 139
25 16 37 29 37 45 0 13 5 39 10 59 9 34 18 39 143 99 362 174 500 234 505 219
2 -5 -25 -64 -61 -132z m-4901 61 c29 -13 54 -35 66 -55 26 -42 38 -42 38 2 0
25 6 39 22 49 27 18 108 32 108 20 0 -5 -15 -45 -33 -89 l-32 -80 -69 2 c-84
2 -187 47 -216 95 -42 70 22 101 116 56z m3983 -163 c162 -24 295 -46 297 -48
2 -2 -2 -27 -8 -55 l-13 -52 -197 -131 -197 -132 -158 33 c-242 49 -716 159
-726 169 -5 5 10 24 34 42 87 70 155 139 184 188 19 32 35 49 45 46 93 -26
819 -157 945 -171 242 -27 -370 98 -867 176 -47 8 -78 18 -78 25 0 25 -70 33
739 -90z m1115 -85 c39 0 66 -4 61 -8 -6 -5 -261 -109 -567 -231 -549 -220
-558 -223 -610 -216 -100 14 -100 16 8 77 273 153 414 226 619 320 l150 69
134 -6 c74 -3 166 -5 205 -5z m121 -86 c5 -42 3 -60 -7 -69 -7 -6 -141 -72
-298 -145 -157 -73 -408 -191 -559 -262 -151 -70 -275 -127 -277 -125 -1 1 -4
45 -6 96 l-3 95 520 212 c286 117 540 222 565 232 25 11 48 20 51 21 4 1 10
-24 14 -55z m-2312 -57 c-3 -13 2 -38 9 -57 l14 -34 370 -82 c203 -45 364 -83
357 -83 -9 -1 -853 135 -1020 164 -32 6 -33 8 -33 53 l0 47 107 -3 c60 -2 126
1 148 6 22 6 43 10 46 11 3 1 4 -9 2 -22z m2227 -134 c0 -21 -7 -209 -15 -418
-8 -209 -15 -397 -15 -417 0 -34 -4 -40 -41 -58 -23 -12 -42 -20 -44 -18 -4 5
31 908 36 912 8 7 64 35 72 36 4 0 7 -17 7 -37z m-1817 -113 c364 -61 672
-112 685 -115 21 -5 22 -10 22 -106 0 -100 0 -101 -22 -96 -13 3 -333 65 -713
137 -379 72 -691 133 -694 135 -2 3 4 14 14 25 14 16 16 29 10 75 -6 51 -5 55
15 55 11 0 319 -50 683 -110z m1687 28 c0 -35 -5 -236 -12 -446 l-12 -384 -34
6 c-19 3 -36 7 -38 9 -2 2 9 195 24 431 28 431 30 445 65 446 4 0 7 -28 7 -62z
m-2450 -391 l0 -273 -29 -17 c-16 -9 -31 -17 -33 -17 -1 0 -2 123 0 272 2 262
3 274 23 291 12 9 25 17 30 17 5 0 9 -120 9 -273z m-103 -58 c-4 -150 -8 -273
-10 -275 -11 -11 -50 13 -67 42 -13 20 -34 37 -55 44 l-35 11 5 57 c3 31 8
114 11 184 l6 127 71 40 c40 22 74 40 76 40 2 1 1 -121 -2 -270z m861 186 c6
-5 -16 -306 -22 -312 -2 -2 -24 1 -50 8 -35 9 -45 15 -42 28 3 9 8 78 12 155
l7 138 45 -6 c25 -3 48 -8 50 -11z m78 -155 l7 -136 -28 -12 c-15 -7 -29 -11
-30 -10 -2 2 8 124 25 308 0 2 4 0 9 -5 6 -6 13 -71 17 -145z m-1133 23 c-2
-65 -6 -142 -9 -171 -5 -49 -8 -53 -27 -48 -12 3 -41 8 -65 12 -33 5 -41 10
-38 23 3 9 12 56 21 105 22 122 41 165 79 182 17 7 34 13 37 14 3 0 4 -53 2
-117z m1992 -443 l7 -375 -48 -20 c-27 -11 -52 -22 -56 -23 -4 -2 -8 204 -8
458 l0 461 43 19 42 19 6 -82 c4 -45 10 -251 14 -457z m-2129 483 c-5 -17 -46
-211 -46 -219 0 -16 -257 -101 -375 -123 -206 -40 -379 -37 -522 10 l-63 21 0
63 c0 34 3 75 6 91 l6 29 196 1 c296 2 551 44 727 118 72 30 78 31 71 9z
m1987 -180 c4 -87 7 -283 7 -436 l0 -278 -22 7 c-13 4 -45 15 -73 24 l-50 17
-6 119 c-4 65 -7 249 -8 408 l-1 288 53 -6 c29 -3 59 -2 67 4 8 5 18 10 21 10
3 0 9 -71 12 -157z m-3448 102 c106 -18 336 -45 381 -45 27 0 32 -4 38 -31 9
-46 7 -122 -4 -139 -7 -12 -32 -15 -122 -14 -130 2 -239 29 -358 89 l-70 35 0
58 c0 63 5 75 29 67 9 -2 57 -11 106 -20z m-207 -185 c26 -52 29 -105 6 -114
-25 -10 -98 -7 -135 5 -42 14 -79 47 -79 70 0 44 80 91 150 86 31 -2 38 -8 58
-47z m60 18 c11 -13 25 -42 30 -65 9 -38 8 -43 -8 -43 -11 0 -19 10 -23 28 -3
15 -17 44 -31 65 -23 33 -23 37 -7 37 9 0 27 -10 39 -22z m98 -34 c50 -21 51
-22 28 -39 -30 -23 -49 -18 -67 20 -19 40 -15 41 39 19z m1529 -4 c3 -6 -7
-22 -24 -36 -17 -14 -39 -39 -48 -55 -12 -20 -24 -29 -38 -27 -29 4 -25 23 15
79 27 37 41 49 62 49 15 0 30 -5 33 -10z m-142 -52 c-15 -24 -28 -45 -29 -46
-1 -2 -28 2 -59 8 -31 6 -54 14 -52 17 8 8 141 62 155 62 7 1 2 -16 -15 -41z
m313 17 c25 -16 25 -17 7 -37 -43 -47 -175 -85 -217 -61 -14 8 -12 14 16 47
63 76 129 94 194 51z"/>
<path d="M831 4019 c-51 -10 -59 -15 -44 -30 13 -13 78 3 108 25 20 15 20 15
0 15 -11 -1 -40 -5 -64 -10z"/>
<path d="M963 3978 c-64 -21 -75 -31 -47 -42 16 -6 67 12 99 37 33 25 14 27
-52 5z"/>
<path d="M1290 3980 c-11 -11 -20 -27 -20 -36 0 -26 39 -12 61 24 l21 32 -21
0 c-12 0 -30 -9 -41 -20z"/>
<path d="M1146 3970 c-46 -18 -65 -34 -66 -53 0 -22 104 24 120 53 13 24 8 24
-54 0z"/>
<path d="M2445 3513 c-203 -24 -418 -80 -553 -143 -91 -43 -172 -102 -172
-126 0 -19 6 -18 43 10 91 68 284 138 581 212 99 24 182 46 184 49 6 5 -32 5
-83 -2z"/>
<path d="M2272 5037 c-27 -29 -28 -61 -2 -87 43 -43 110 -14 110 48 0 57 -68
82 -108 39z m93 -17 c4 -6 1 -17 -5 -26 -10 -11 -16 -12 -26 -3 -11 9 -11 15
-3 25 14 17 25 18 34 4z"/>
<path d="M2291 4756 c-7 -8 -11 -25 -9 -38 2 -18 9 -23 32 -23 36 0 56 27 40
53 -14 22 -48 27 -63 8z m59 -14 c0 -13 -12 -22 -22 -16 -10 6 -1 24 13 24 5
0 9 -4 9 -8z"/>
<path d="M4765 2663 c-46 -11 -37 -23 18 -23 58 0 76 13 35 24 -13 3 -25 5
-28 5 -3 -1 -14 -3 -25 -6z"/>
<path d="M4790 2583 c-43 -19 -26 -28 36 -18 45 6 56 18 28 29 -21 8 -24 8
-64 -11z"/>
<path d="M4809 2520 c-50 -15 -209 -102 -209 -115 0 -2 37 13 83 34 45 20 103
43 129 50 55 16 85 42 47 40 -13 0 -36 -4 -50 -9z"/>
<path d="M4855 2481 c-22 -10 -71 -38 -110 -63 -38 -24 -94 -57 -122 -73 -29
-15 -53 -32 -53 -36 0 -5 81 33 179 84 159 82 197 108 158 107 -7 0 -30 -9
-52 -19z"/>
<path d="M4905 2416 c-11 -7 -75 -38 -142 -69 -133 -60 -218 -106 -209 -114 2
-3 76 29 163 70 87 42 172 79 188 83 33 7 55 22 55 35 0 14 -33 11 -55 -5z"/>
<path d="M2688 2909 c-10 -6 -18 -14 -18 -19 0 -14 37 -12 46 1 10 17 -9 29
-28 18z"/>
<path d="M868 2293 c-24 -26 -32 -54 -29 -110 1 -28 17 -30 24 -4 2 11 15 21
27 23 13 1 32 16 44 31 17 23 18 31 8 48 -7 11 -10 24 -7 29 14 23 -44 8 -67
-17z m46 -29 c8 -21 -1 -34 -25 -34 -22 0 -23 4 -9 31 13 23 26 24 34 3z"/>
<path d="M1717 2390 c-14 -11 -40 -49 -58 -85 -51 -102 -46 -100 -187 -76 -66
12 -134 21 -151 21 -34 0 -33 3 -31 -96 l1 -62 -48 -6 c-222 -33 -401 -124
-485 -247 -40 -58 -83 -159 -69 -159 5 0 12 10 15 23 6 21 7 21 20 5 20 -27
41 -22 75 17 38 44 59 108 42 129 -10 12 -4 20 31 44 109 75 220 116 359 135
l94 13 3 78 3 78 27 -5 c88 -19 243 -39 256 -34 8 3 29 32 45 65 16 32 45 77
65 101 34 40 47 81 27 81 -4 0 -20 -9 -34 -20z m-907 -572 c0 -35 -37 -88 -60
-88 -11 0 -20 5 -20 10 0 12 27 69 42 88 17 20 38 14 38 -10z"/>
<path d="M1368 1878 c-16 -30 -24 -248 -9 -248 6 0 11 3 11 8 1 46 20 231 25
245 10 25 -12 21 -27 -5z"/>
<path d="M1892 1877 c-6 -7 -18 -57 -27 -112 -9 -55 -27 -124 -40 -153 -35
-77 -63 -87 -243 -87 -117 0 -139 -2 -125 -13 67 -48 281 -40 375 16 33 19 51
68 73 207 23 137 19 180 -13 142z"/>
<path d="M1447 1643 c-9 -9 -9 -43 1 -43 18 1 34 19 29 34 -7 17 -19 21 -30 9z"/>
<path d="M3444 1719 c-3 -6 -15 -9 -25 -6 -10 3 -22 1 -25 -4 -3 -5 0 -9 5 -9
6 0 11 -4 11 -10 0 -5 -15 -10 -32 -10 -30 -1 -31 -2 -15 -14 15 -12 15 -15 3
-26 -8 -6 -24 -9 -35 -5 -10 3 -22 1 -26 -5 -3 -5 1 -10 10 -10 9 0 15 -6 12
-12 -2 -8 -15 -12 -30 -10 -15 2 -27 -1 -27 -7 0 -6 7 -11 16 -11 10 0 14 -6
10 -15 -6 -17 9 -21 19 -5 3 6 17 10 31 10 21 0 24 -4 19 -20 -7 -23 7 -27 24
-7 6 8 23 12 41 9 26 -4 30 -8 24 -26 -6 -20 -6 -20 13 -4 23 21 70 14 52 -8
-13 -16 2 -19 18 -3 17 17 68 7 67 -13 -2 -20 11 -24 21 -8 3 6 18 10 32 10
21 0 24 -2 13 -15 -10 -12 -10 -15 4 -15 9 0 16 5 16 10 0 11 30 13 54 4 13
-5 14 -9 5 -20 -8 -9 -8 -14 -1 -14 6 0 14 5 17 10 3 6 17 10 31 10 22 0 24
-3 18 -22 -6 -22 -6 -23 13 -5 24 21 78 14 69 -9 -6 -16 10 -19 19 -4 7 12 55
14 55 2 0 -4 -5 -13 -12 -20 -8 -8 -8 -12 -1 -12 6 0 16 6 22 14 9 10 23 13
48 9 26 -4 34 -3 29 5 -4 7 -14 12 -22 12 -8 0 -14 5 -14 11 0 6 16 9 40 8 47
-4 62 6 25 15 -22 6 -25 9 -14 22 9 11 23 13 57 8 32 -5 43 -4 38 5 -4 6 -18
11 -32 11 -27 0 -31 12 -10 29 8 7 32 9 62 5 36 -4 45 -3 34 5 -8 6 -25 11
-37 11 -28 0 -29 8 -5 26 13 10 14 13 3 14 -8 0 -22 -7 -32 -16 -12 -11 -27
-14 -48 -9 -34 7 -38 14 -19 33 8 8 8 12 1 12 -6 0 -16 -7 -23 -16 -8 -8 -25
-14 -39 -12 -21 2 -25 7 -23 28 l4 25 -24 -22 c-16 -15 -31 -20 -50 -16 -31 6
-34 13 -16 31 8 8 8 12 1 12 -6 0 -16 -7 -23 -15 -13 -15 -51 -20 -63 -8 -4 3
-2 12 4 20 15 17 0 17 -20 -1 -21 -19 -77 -10 -61 9 8 9 8 15 0 20 -5 3 -13
-1 -16 -9 -3 -9 -17 -16 -31 -16 -20 0 -23 4 -18 20 8 24 -10 27 -23 4 -7 -12
-17 -15 -41 -9 -26 6 -30 9 -20 21 7 9 8 14 1 14 -6 0 -14 -4 -17 -10 -3 -5
-18 -10 -32 -10 -21 0 -24 2 -13 15 8 9 9 15 2 15 -6 0 -14 -4 -17 -10 -3 -5
-20 -10 -37 -10 -23 0 -29 4 -24 15 6 17 -9 21 -20 4z m35 -38 c20 -13 -3 -23
-33 -15 -14 3 -23 10 -20 15 7 11 35 11 53 0z m71 -22 c0 -5 -11 -9 -25 -9
-24 0 -32 10 -19 22 8 8 44 -3 44 -13z m80 -8 c0 -6 -4 -12 -10 -16 -13 -8
-61 5 -54 16 7 12 64 12 64 0z m-180 -9 c0 -17 -22 -29 -46 -24 -19 3 -22 7
-13 18 12 15 59 19 59 6z m238 2 c31 -9 10 -33 -23 -26 -25 4 -31 13 -18 25 8
8 12 8 41 1z m-179 -13 c17 -11 6 -31 -18 -31 -23 0 -31 9 -24 26 6 16 22 18
42 5z m271 -12 c0 -14 -21 -21 -46 -15 -20 5 -23 10 -15 20 12 14 61 10 61 -5z
m-180 -9 c0 -16 -27 -29 -48 -23 -24 6 -27 14 -11 30 11 11 59 6 59 -7z m244
4 c26 -10 1 -32 -29 -26 -25 4 -31 13 -18 25 8 9 27 9 47 1z m-449 -14 c18 -7
19 -8 3 -15 -22 -9 -51 1 -43 15 7 12 13 12 40 0z m263 4 c18 -5 20 -9 11 -20
-12 -14 -51 -19 -62 -7 -7 6 11 33 22 33 3 0 16 -3 29 -6z m281 -10 c10 -8
-14 -24 -38 -24 -34 0 -44 9 -30 26 10 12 53 10 68 -2z m-454 -13 c3 -5 1 -12
-4 -16 -14 -8 -62 5 -55 16 7 12 51 12 59 0z m258 2 c9 -8 -12 -33 -27 -33
-20 0 -39 17 -32 29 8 12 49 15 59 4z m271 -1 c12 -19 -12 -34 -43 -27 -26 6
-30 9 -20 21 12 15 55 19 63 6z m-460 -23 c-7 -11 -54 -12 -54 -1 0 15 10 19
35 14 14 -2 22 -8 19 -13z m265 5 c11 -10 -22 -31 -44 -26 -28 5 -31 12 -13
30 10 10 44 8 57 -4z m291 -4 c0 -18 -29 -30 -59 -24 -29 6 -30 8 -16 24 15
16 75 17 75 0z m-486 -9 c14 -5 16 -10 7 -15 -16 -10 -63 2 -56 14 7 12 22 12
49 1z m260 3 c13 -5 14 -9 5 -20 -21 -26 -71 -11 -54 16 7 11 26 13 49 4z
m-181 -30 c-3 -8 -12 -13 -20 -10 -8 3 -19 6 -24 6 -6 0 -7 5 -4 10 3 6 17 10
30 10 18 0 23 -4 18 -16z m277 7 c0 -17 -26 -29 -53 -24 -22 4 -25 8 -16 19
13 15 69 19 69 5z m-213 -7 c28 -8 20 -24 -12 -24 -25 0 -39 12 -28 24 8 7 12
7 40 0z m280 -4 c13 0 13 -3 3 -15 -13 -15 -70 -21 -70 -7 0 15 24 32 38 27 8
-3 21 -5 29 -5z m-192 -19 c3 -5 1 -12 -5 -16 -13 -8 -50 3 -50 16 0 12 47 12
55 0z m72 -11 c12 0 13 -3 4 -14 -11 -13 -61 -11 -61 3 0 14 14 22 28 16 7 -3
21 -5 29 -5z m73 -20 c12 -8 12 -10 -3 -16 -22 -8 -50 3 -42 16 8 12 25 13 45
0z"/>
</g>
</svg>
